<svg xmlns="http://www.w3.org/2000/svg" xmlns:xlink="http://www.w3.org/1999/xlink"><symbol id="close" viewBox="0 0 24 24"><rect width="5.26" height="29.85" x="9.26" y="-2.6" rx="2.63" transform="rotate(-44.82 11.886 12.321)"/><rect width="31.02" height="4.61" x="-3.53" y="9.61" rx="2.3" transform="rotate(-44.82 11.98 11.92)"/></symbol><symbol id="facebook" viewBox="0 0 24 24"><defs><style>.cls-1{fill:#010101}</style></defs><path d="M19 0H5a5 5 0 0 0-5 5v14a5 5 0 0 0 5 5h14a5 5 0 0 0 5-5V5a5 5 0 0 0-5-5zm-3 7h-1.92c-.62 0-1.08.25-1.08.89V9h3l-.24 3H13v8h-3v-8H8V9h2V7.08C10 5.06 11.06 4 13.46 4H16z" class="cls-1"/></symbol><symbol id="hamburger" viewBox="0 0 24 24"><rect width="22.45" height="4.48" x=".55" y="2.55" rx="1.93"/><rect width="22.45" height="4.48" x=".55" y="9.45" rx="1.93"/><rect width="22.45" height="4.48" x=".55" y="16.36" rx="1.93"/></symbol><symbol id="heart" viewBox="0 0 24 24"><defs><style>.cls-1{fill:#020202}</style><symbol id="Candy_Heart" viewBox="0 0 95.34 75.04"><path d="M61.15 13.47a15.77 15.77 0 0 1-8.92 1.39c-4.29-.86-5.48-2.26-11.17-6.61C35 3.64 13.35-11.17 2.16 15.6-9.41 43.27 28.92 73.84 37.21 74.93S83 69 92.88 43.33C103.73 15.29 76 6.74 61.15 13.47z" class="cls-1"/></symbol></defs><use width="95.34" height="75.04" transform="matrix(.23 -.05 .05 .23 -.77 6.32)" xlink:href="#Candy_Heart"/></symbol><symbol id="instagram" viewBox="0 0 24 24"><defs><style>.cls-1{fill:#010101}</style></defs><path d="M15.23 5.49H8.77c-2.17.1-3.18 1.12-3.28 3.28v6.46c.1 2.15 1.1 3.18 3.28 3.28h6.46c2.17-.1 3.18-1.13 3.28-3.28V8.77c-.1-2.15-1.11-3.18-3.28-3.28zM12 16.11A4.11 4.11 0 1 1 16.11 12 4.11 4.11 0 0 1 12 16.11zm4.27-7.42a1 1 0 1 1 1-1 1 1 0 0 1-1 1zM14.67 12A2.67 2.67 0 1 1 12 9.33 2.68 2.68 0 0 1 14.67 12zM19 0H5a5 5 0 0 0-5 5v14a5 5 0 0 0 5 5h14a5 5 0 0 0 5-5V5a5 5 0 0 0-5-5zm1 15.3c-.13 2.91-1.75 4.52-4.65 4.65-.85 0-1.13.05-3.3.05H8.7c-2.91-.13-4.52-1.75-4.65-4.65v-6.6c.13-2.96 1.75-4.57 4.65-4.7C9.56 4 9.83 4 12 4h3.3c2.91.18 4.52 1.8 4.7 4.7 0 .86.05 1.13.05 3.3S20 14.44 20 15.3z" class="cls-1"/></symbol><symbol id="plus" viewBox="0 0 24 24"><rect width="4.07" height="23.1" x="9.69" y=".78" rx="2.04"/><rect width="24" height="3.57" y="10.37" rx="1.78"/></symbol><symbol id="shopping-cart" viewBox="0 0 24 24"><defs><style>.cls-1{fill:#020202}.cls-2{fill:none;stroke:#231f20;stroke-linecap:round;stroke-linejoin:round;stroke-width:2.22px}.cls-3{fill:#231f20}</style><symbol id="Candy_Heart" viewBox="0 0 95.34 75.04"><path d="M61.15 13.47a15.77 15.77 0 0 1-8.92 1.39c-4.29-.86-5.48-2.26-11.17-6.61C35 3.64 13.35-11.17 2.16 15.6-9.41 43.27 28.92 73.84 37.21 74.93S83 69 92.88 43.33C103.73 15.29 76 6.74 61.15 13.47z" class="cls-1"/></symbol></defs><use width="95.34" height="75.04" transform="matrix(.05 0 0 .05 8.32 19.67)" xlink:href="#Candy_Heart"/><use width="95.34" height="75.04" transform="matrix(.05 0 0 .05 14.76 19.67)" xlink:href="#Candy_Heart"/><path d="M2.22 3.64h3.42l4.56 12.88" class="cls-2"/><path d="M6.15 7.72l2.76 9.43c.29.78 1.16 1 2.11 1h7.13a2.21 2.21 0 0 0 2.08-1.27L23 8c.5-1.23.2-2.49-1.31-2.49H7.75c-1.48.03-2.06.99-1.6 2.21z" class="cls-3"/></symbol><symbol id="twitter" viewBox="0 0 24 24"><defs><style>.cls-1{fill:#010101}</style></defs><path d="M19 0H5a5 5 0 0 0-5 5v14a5 5 0 0 0 5 5h14a5 5 0 0 0 5-5V5a5 5 0 0 0-5-5zm-.14 9.24A9.34 9.34 0 0 1 4.5 17.53a6.63 6.63 0 0 0 4.86-1.36 3.3 3.3 0 0 1-3.07-2.28 3.24 3.24 0 0 0 1.49-.06 3.29 3.29 0 0 1-2.64-3.26 3.13 3.13 0 0 0 1.49.43 3.28 3.28 0 0 1-1-4.38A9.32 9.32 0 0 0 12.38 10 3.28 3.28 0 0 1 18 7a6.62 6.62 0 0 0 2.09-.8 3.35 3.35 0 0 1-1.44 1.82 6.64 6.64 0 0 0 1.88-.52 6.79 6.79 0 0 1-1.67 1.74z" class="cls-1"/></symbol></svg>