<svg xmlns="http://www.w3.org/2000/svg" xmlns:xlink="http://www.w3.org/1999/xlink"><symbol id="bear" viewBox="0 0 24 24"><defs><style>.cls-1{fill:#020202}</style></defs><path d="M16.2 23.62c-1.19-.17-3.7-1.68-5.69-.73A14.57 14.57 0 0 1 5.9 24c-6.83-.92-3.77-5.16-2.75-6.33a1.66 1.66 0 0 0-.34-2.47c-.3-.26-3.61-3.7-.25-5.92C5.2 7.53 5.14 6.8 5 6.57a3.14 3.14 0 0 1-.28-.46C3.65 3.81 5 2.69 5 2.69a2.33 2.33 0 0 1-.42-1.42 1.52 1.52 0 0 1 .91-1c1.8-.72 3.48 1 3.48 1 1.08-.12 4.93 0 4.93 0a2.82 2.82 0 0 1 3-1.12C17.85.44 18.37 1.29 18 2a1.14 1.14 0 0 1-.18.25c-.48.5 1.74 1.3.19 3.88a.82.82 0 0 0 .23 1 16.43 16.43 0 0 0 1.85 1.61c1.28.95 4.52 2.54 1.84 5.88a3.42 3.42 0 0 1-1 .79 1.06 1.06 0 0 0-.34.31A1.31 1.31 0 0 0 21 17.6a3.19 3.19 0 0 1 1.37 1.66c.06.34 0 .22 0 .22s-1.51-1.24-2.24-.06-.12.41-1.22.28c-2-.24-2.07 1-1.52 2 0 0-1-.2-1.3.38-.41 1 .88 1.09.94 1.36s-.83.18-.83.18z" class="cls-1"/></symbol><symbol id="down-arrow" viewBox="0 0 24 24"><rect width="19.26" height="5.09" x="-2.11" y="11.33" rx="2.06" transform="rotate(-126.42 7.522 13.878)"/><rect width="19.26" height="5.09" x="6.83" y="11.33" rx="2.06" transform="rotate(-53.58 16.456 13.876)"/></symbol><symbol id="instagram" viewBox="0 0 24 24"><defs><style>.cls-1{fill:#010101}</style></defs><path d="M15.23 5.49H8.77c-2.17.1-3.18 1.12-3.28 3.28v6.46c.1 2.15 1.1 3.18 3.28 3.28h6.46c2.17-.1 3.18-1.13 3.28-3.28V8.77c-.1-2.15-1.11-3.18-3.28-3.28zM12 16.11A4.11 4.11 0 1 1 16.11 12 4.11 4.11 0 0 1 12 16.11zm4.27-7.42a1 1 0 1 1 1-1 1 1 0 0 1-1 1zM14.67 12A2.67 2.67 0 1 1 12 9.33 2.68 2.68 0 0 1 14.67 12zM19 0H5a5 5 0 0 0-5 5v14a5 5 0 0 0 5 5h14a5 5 0 0 0 5-5V5a5 5 0 0 0-5-5zm1 15.3c-.13 2.91-1.75 4.52-4.65 4.65-.85 0-1.13.05-3.3.05H8.7c-2.91-.13-4.52-1.75-4.65-4.65v-6.6c.13-2.96 1.75-4.57 4.65-4.7C9.56 4 9.83 4 12 4h3.3c2.91.18 4.52 1.8 4.7 4.7 0 .86.05 1.13.05 3.3S20 14.44 20 15.3z" class="cls-1"/></symbol><symbol id="close" viewBox="0 0 24 24"><rect width="5.26" height="29.85" x="9.26" y="-2.6" rx="2.63" transform="rotate(-44.82 11.886 12.321)"/><rect width="31.02" height="4.61" x="-3.53" y="9.61" rx="2.3" transform="rotate(-44.82 11.98 11.92)"/></symbol><symbol id="facebook" viewBox="0 0 24 24"><defs><style>.cls-1{fill:#010101}</style></defs><path d="M19 0H5a5 5 0 0 0-5 5v14a5 5 0 0 0 5 5h14a5 5 0 0 0 5-5V5a5 5 0 0 0-5-5zm-3 7h-1.92c-.62 0-1.08.25-1.08.89V9h3l-.24 3H13v8h-3v-8H8V9h2V7.08C10 5.06 11.06 4 13.46 4H16z" class="cls-1"/></symbol><symbol id="left-arrow" viewBox="0 0 24 24"><rect width="19.26" height="5.09" x="2.28" y="5.11" rx="2.06" transform="rotate(-37.61 11.91 7.66)"/><rect width="19.26" height="5.09" x="2.46" y="14.04" rx="2.06" transform="rotate(35.23 12.095 16.58)"/></symbol><symbol id="hamburger" viewBox="0 0 24 24"><rect width="22.45" height="4.48" x=".55" y="2.55" rx="1.93"/><rect width="22.45" height="4.48" x=".55" y="9.45" rx="1.93"/><rect width="22.45" height="4.48" x=".55" y="16.36" rx="1.93"/></symbol><symbol id="right-arrow" viewBox="0 0 24 24"><rect width="19.26" height="5.09" x="1.25" y="5.11" rx="2.06" transform="rotate(-142.39 10.877 7.657)"/><rect width="19.26" height="5.09" x="1.06" y="14.04" rx="2.06" transform="rotate(144.77 10.69 16.587)"/></symbol><symbol id="main-logo" viewBox="0 0 24 24"><defs><style>.cls-1{fill:#020202}.cls-2{fill:#231f20}</style></defs><path d="M6.05 15.32c-.39-.06-1.2-.55-1.85-.24a4.71 4.71 0 0 1-1.5.36c-2.21-.3-1.22-1.67-.89-2a.53.53 0 0 0-.11-.8c-.09-.09-1.17-1.2-.08-1.92.86-.57.84-.81.79-.88l-.09-.15c-.32-.8.08-1.16.08-1.16a.74.74 0 0 1-.14-.46.53.53 0 0 1 .3-.34 1.15 1.15 0 0 1 1.12.33h1.6a.92.92 0 0 1 1-.36c.31.1.48.37.35.62a.21.21 0 0 1-.06.08c-.16.16.57.42.06 1.26a.26.26 0 0 0 .07.34 5.2 5.2 0 0 0 .6.52c.41.31 1.46.82.6 1.91a1.2 1.2 0 0 1-.33.25l-.11.1a.44.44 0 0 0 .14.62 1 1 0 0 1 .45.53V14s-.49-.4-.73 0 0 .14-.39.1c-.65-.08-.68.32-.5.64 0 0-.34-.06-.42.13s.28.35.3.44-.26.01-.26.01z" class="cls-1"/><path d="M9.69 11.46a.36.36 0 0 1-.13.27.41.41 0 0 0 .32.35s.1 0 .1-.11c0-.24-.28-.83-.28-1.13a.71.71 0 0 1 .77-.68c.28 0 .44.12.44.35a.38.38 0 0 1-.1.26.65.65 0 0 0-.26-.06c-.1 0-.15 0-.15.12s.27.62.27 1a.83.83 0 0 1-.93.81.66.66 0 0 1-.67-.73c0-.29.08-.76.32-.76s.3.19.3.31zm1.5-.8a.72.72 0 0 1 .74-.59c.26 0 .35.13.35.29v.08a2.41 2.41 0 0 0-.62 1.3c0 .15.05.2.12.2a.38.38 0 0 0 .23-.07v-.18c0-.57.34-1.19.62-1.19s.33.16.33.37a1.72 1.72 0 0 1-.38 1c0 .13.07.2.14.2.26 0 .42-.8.42-1.19v-.38a.27.27 0 0 1 .24-.12.43.43 0 0 1 .41.48c0 .86-.56 1.78-1.24 1.78a.42.42 0 0 1-.41-.33 1 1 0 0 1-.64.29.53.53 0 0 1-.57-.61 1.71 1.71 0 0 1 .39-1 .32.32 0 0 1-.13-.33zM15.55 12a1.56 1.56 0 0 1-1 .54c-.47 0-.69-.27-.69-.79 0-.73.6-1.44 1.06-1.44a.43.43 0 0 1 .49.46c0 .39-.28.69-.87.87 0 .22.05.34.24.34a1.14 1.14 0 0 0 .8-.51c.12-.66.63-1.25 1.08-1.25a.46.46 0 0 1 .53.5c0 .4-.29.77-1 .92 0 .29.09.43.25.43.38 0 .75-.35 1-.79a.15.15 0 0 1 .17.16 1.77 1.77 0 0 1-1.43 1.21.67.67 0 0 1-.63-.65zm-.77-1.19c-.06 0-.19.14-.23.47.26-.07.33-.16.33-.31s-.04-.17-.1-.17zm1.74-.08c-.11 0-.23.19-.27.55a.42.42 0 0 0 .38-.39c0-.11-.06-.17-.11-.17z" class="cls-2"/><path d="M18.4 10.47h.42a.29.29 0 0 1 .09.2.3.3 0 0 1-.28.32 1.5 1.5 0 0 1-.35 0 5.58 5.58 0 0 0-.17.87c0 .12 0 .17.13.17s.53-.23.86-.69a.19.19 0 0 1 .19.16A1.8 1.8 0 0 1 18 12.59a.56.56 0 0 1-.62-.64 4 4 0 0 1 .23-1c-.1 0-.18 0-.18-.13a.29.29 0 0 1 .3-.29c.24-.63.5-1.08.82-1.08.11 0 .19.05.19.16a8.78 8.78 0 0 1-.34.86z" class="cls-2"/><path d="M18.89 11.74c0-.73.6-1.47 1.07-1.47a.44.44 0 0 1 .51.49c0 .41-.24.72-.9.87 0 .22.05.34.24.34a1.41 1.41 0 0 0 1-.7.17.17 0 0 1 .19.16 1.76 1.76 0 0 1-1.44 1.12c-.45 0-.67-.29-.67-.81zm.94-1c-.06 0-.19.17-.23.5.27 0 .33-.19.33-.34s-.04-.13-.1-.13z" class="cls-2"/><path d="M22.19 10.93a.91.91 0 0 1-.13.37 1.73 1.73 0 0 0-.2.58c0 .06 0 .11.08.11s.47-.3.73-.7a.18.18 0 0 1 .2.15 2 2 0 0 1-1.27 1.17c-.29 0-.46-.14-.46-.41a4.67 4.67 0 0 1 .24-.85c0-.06-.05-.09-.16-.13a3 3 0 0 1-.42.63.18.18 0 0 1-.19-.19.27.27 0 0 1 0-.12 1.9 1.9 0 0 0 .3-.49.3.3 0 0 1-.07-.2 1.06 1.06 0 0 1 .77-.82c.17 0 .28.08.28.21a.3.3 0 0 1 0 .1.63.63 0 0 0-.27.24l.22.09c.3.08.35.15.35.26zM9.19 14a.42.42 0 0 1 .42-.46.38.38 0 0 1 .4.28h-.1a.29.29 0 0 0-.29-.2.32.32 0 0 0-.31.35.31.31 0 0 0 .31.34.28.28 0 0 0 .28-.19h.11a.39.39 0 0 1-.4.28.42.42 0 0 1-.42-.4zm.94 0a.41.41 0 0 1 .41-.46.34.34 0 0 1 .33.22v-.2H11v.87h-.12v-.23a.33.33 0 0 1-.33.21.4.4 0 0 1-.42-.41zm.75 0a.31.31 0 0 0-.32-.35c-.19 0-.31.13-.31.35a.31.31 0 0 0 .31.35.32.32 0 0 0 .32-.35zm.33-.48h.12v.19a.29.29 0 0 1 .3-.2c.25 0 .36.14.36.42v.46h-.11v-.46c0-.21-.09-.32-.28-.32s-.27.13-.27.35v.43h-.12zm.94.48a.41.41 0 0 1 .41-.46.36.36 0 0 1 .34.22v-.48h.1v1.15h-.1v-.23a.35.35 0 0 1-.34.21.4.4 0 0 1-.41-.41zm.75 0a.32.32 0 1 0-.63 0 .32.32 0 0 0 .32.35.31.31 0 0 0 .31-.35zm.63.39l-.39-.87h.13l.33.74.32-.74h.13l-.52 1.16h-.13zm1.04-.39a.42.42 0 0 1 .43-.5.4.4 0 0 1 .4.28h-.11a.28.28 0 0 0-.29-.2.32.32 0 0 0-.31.35.31.31 0 0 0 .31.34.3.3 0 0 0 .29-.19h.11a.39.39 0 0 1-.4.28.42.42 0 0 1-.43-.36zm.94 0a.43.43 0 1 1 .43.45.42.42 0 0 1-.43-.45zm.75 0a.31.31 0 0 0-.32-.35c-.19 0-.31.13-.31.35a.31.31 0 0 0 .31.35.32.32 0 0 0 .32-.35zm.25.33a.07.07 0 0 1 .07-.07.07.07 0 0 1 .08.07.07.07 0 0 1-.08.08.07.07 0 0 1-.07-.08z" class="cls-2"/></symbol><symbol id="plus" viewBox="0 0 24 24"><rect width="4.07" height="23.1" x="9.69" y=".78" rx="2.04"/><rect width="24" height="3.57" y="10.37" rx="1.78"/></symbol><symbol id="heart" viewBox="0 0 24 24"><defs><style>.cls-1{fill:#020202}</style><symbol id="Candy_Heart" viewBox="0 0 95.34 75.04"><path d="M61.15 13.47a15.77 15.77 0 0 1-8.92 1.39c-4.29-.86-5.48-2.26-11.17-6.61C35 3.64 13.35-11.17 2.16 15.6-9.41 43.27 28.92 73.84 37.21 74.93S83 69 92.88 43.33C103.73 15.29 76 6.74 61.15 13.47z" class="cls-1"/></symbol></defs><use width="95.34" height="75.04" transform="rotate(-12.18 29.233 6.768) scale(.24)" xlink:href="#Candy_Heart"/></symbol><symbol id="twitter" viewBox="0 0 24 24"><defs><style>.cls-1{fill:#010101}</style></defs><path d="M19 0H5a5 5 0 0 0-5 5v14a5 5 0 0 0 5 5h14a5 5 0 0 0 5-5V5a5 5 0 0 0-5-5zm-.14 9.24A9.34 9.34 0 0 1 4.5 17.53a6.63 6.63 0 0 0 4.86-1.36 3.3 3.3 0 0 1-3.07-2.28 3.24 3.24 0 0 0 1.49-.06 3.29 3.29 0 0 1-2.64-3.26 3.13 3.13 0 0 0 1.49.43 3.28 3.28 0 0 1-1-4.38A9.32 9.32 0 0 0 12.38 10 3.28 3.28 0 0 1 18 7a6.62 6.62 0 0 0 2.09-.8 3.35 3.35 0 0 1-1.44 1.82 6.64 6.64 0 0 0 1.88-.52 6.79 6.79 0 0 1-1.67 1.74z" class="cls-1"/></symbol><symbol id="shopping-cart" viewBox="0 0 24 24"><defs><style>.cls-1{fill:#020202}.cls-2{fill:none;stroke:#231f20;stroke-linecap:round;stroke-linejoin:round;stroke-width:2.22px}.cls-3{fill:#231f20}</style><symbol id="Candy_Heart" viewBox="0 0 95.34 75.04"><path d="M61.15 13.47a15.77 15.77 0 0 1-8.92 1.39c-4.29-.86-5.48-2.26-11.17-6.61C35 3.64 13.35-11.17 2.16 15.6-9.41 43.27 28.92 73.84 37.21 74.93S83 69 92.88 43.33C103.73 15.29 76 6.74 61.15 13.47z" class="cls-1"/></symbol></defs><use width="95.34" height="75.04" transform="matrix(.05 0 0 .05 8.32 19.67)" xlink:href="#Candy_Heart"/><use width="95.34" height="75.04" transform="matrix(.05 0 0 .05 14.76 19.67)" xlink:href="#Candy_Heart"/><path d="M2.22 3.64h3.42l4.56 12.88" class="cls-2"/><path d="M6.15 7.72l2.76 9.43c.29.78 1.16 1 2.11 1h7.13a2.21 2.21 0 0 0 2.08-1.27L23 8c.5-1.23.2-2.49-1.31-2.49H7.75c-1.48.03-2.06.99-1.6 2.21z" class="cls-3"/></symbol></svg>