<svg id="Layer_1" data-name="Layer 1" xmlns="http://www.w3.org/2000/svg" viewBox="0 0 16.05 16.05"><defs><style>.cls-1{fill:#231f20;}</style></defs><title>logo-16</title><path class="cls-1" d="M11.06,15.25c-.71-.1-2.21-1-3.41-.43a8.61,8.61,0,0,1-2.76.66c-4.1-.55-2.27-3.1-1.65-3.8A1,1,0,0,0,3,10.21C2.85,10.05.87,8,2.88,6.65,4.47,5.6,4.43,5.17,4.34,5a2.54,2.54,0,0,1-.16-.28c-.64-1.38.13-2,.13-2a1.4,1.4,0,0,1-.24-.85.92.92,0,0,1,.54-.62,2.15,2.15,0,0,1,2.09.61c.65-.08,3,0,3,0a1.7,1.7,0,0,1,1.82-.68c.58.19.9.7.66,1.15a.83.83,0,0,1-.11.15c-.29.3,1,.78.11,2.33a.48.48,0,0,0,.14.57,8.64,8.64,0,0,0,1.11,1c.77.57,2.71,1.52,1.1,3.53a2.15,2.15,0,0,1-.59.47.59.59,0,0,0-.2.19.77.77,0,0,0,.25,1.13,1.83,1.83,0,0,1,.82,1c0,.2,0,.13,0,.13s-.9-.74-1.34,0-.08.25-.73.17c-1.2-.14-1.25.6-.91,1.2,0,0-.63-.12-.78.23-.25.57.52.65.56.81S11.06,15.25,11.06,15.25Z"/></svg>