<svg id="Layer_1" data-name="Layer 1" xmlns="http://www.w3.org/2000/svg" viewBox="0 0 32.1 32.1"><defs><style>.cls-1{fill:#231f20;}</style></defs><title>logo-32</title><path class="cls-1" d="M22.89,30c-1.45-.2-4.53-2.05-7-.89a18,18,0,0,1-5.65,1.36c-8.35-1.12-4.61-6.32-3.36-7.75a2,2,0,0,0-.42-3c-.37-.32-4.41-4.53-.3-7.25,3.23-2.14,3.16-3,3-3.31a4.76,4.76,0,0,1-.34-.57c-1.31-2.82.27-4.18.27-4.18a3,3,0,0,1-.5-1.74A1.87,1.87,0,0,1,9.72,1.41C11.92.53,14,2.64,14,2.64c1.32-.15,6,0,6,0a3.46,3.46,0,0,1,3.72-1.37c1.18.38,1.81,1.42,1.33,2.33a1.44,1.44,0,0,1-.23.32c-.59.6,2.13,1.58.24,4.75a1,1,0,0,0,.28,1.17,19.74,19.74,0,0,0,2.26,2C29.18,13,33.14,14.92,29.87,19a4.22,4.22,0,0,1-1.22,1,1.42,1.42,0,0,0-.41.38,1.58,1.58,0,0,0,.52,2.3,3.8,3.8,0,0,1,1.67,2l.05.26s-1.85-1.52-2.75-.08-.15.51-1.48.35c-2.45-.29-2.55,1.22-1.87,2.44,0,0-1.28-.24-1.59.47-.51,1.17,1.07,1.33,1.14,1.66S22.89,30,22.89,30Z"/></svg>