<svg id="Layer_1" data-name="Layer 1" xmlns="http://www.w3.org/2000/svg" viewBox="0 0 60.25 56.08"><defs><style>.cls-1,.cls-2,.cls-3{fill:#231f20;}.cls-2{font-size:21.04px;font-family:BelloScriptPro-Regular, Bello Script Pro;}.cls-3{font-size:6.66px;font-family:Urbane-Light, Urbane;font-weight:300;}.cls-4{letter-spacing:-0.02em;}.cls-5{letter-spacing:-0.02em;}</style></defs><title>logo-64</title><path class="cls-1" d="M35.74,33.48c-1.68-.23-5.24-2.37-8-1A20.64,20.64,0,0,1,21.16,34c-9.66-1.31-5.33-7.31-3.89-9a2.35,2.35,0,0,0-.48-3.49c-.42-.37-5.1-5.24-.35-8.38,3.74-2.48,3.65-3.5,3.44-3.83a7.45,7.45,0,0,1-.39-.65c-1.51-3.27.32-4.84.32-4.84a3.35,3.35,0,0,1-.58-2A2.14,2.14,0,0,1,20.52.41c2.54-1,4.92,1.43,4.92,1.43,1.53-.18,7,0,7,0S34.1-.6,36.71.25c1.36.44,2.1,1.64,1.54,2.7a1.54,1.54,0,0,1-.27.36c-.68.7,2.47,1.83.28,5.49a1.13,1.13,0,0,0,.33,1.36,22.08,22.08,0,0,0,2.61,2.27c1.81,1.34,6.39,3.6,2.6,8.32a4.61,4.61,0,0,1-1.4,1.12,1.47,1.47,0,0,0-.47.44A1.84,1.84,0,0,0,42.52,25a4.32,4.32,0,0,1,1.94,2.34c.09.48,0,.31,0,.31s-2.13-1.76-3.17-.09c-.94,1.5-.18.58-1.72.4-2.83-.33-2.94,1.41-2.15,2.83,0,0-1.48-.28-1.84.54C35,32.66,36.87,32.85,37,33.23S35.74,33.48,35.74,33.48Z"/><text class="cls-2" transform="translate(0 48.26)">sweeter</text><text class="cls-3" transform="translate(12.35 54.47)"><tspan class="cls-4">c</tspan><tspan x="4.11" y="0">andy </tspan><tspan class="cls-5" x="23.46" y="0">c</tspan><tspan x="27.57" y="0">o.</tspan></text></svg>