<svg id="Layer_1" data-name="Layer 1" xmlns="http://www.w3.org/2000/svg" viewBox="0 0 248.5 103.89"><defs><style>.cls-1,.cls-2,.cls-3{fill:#231f20;}.cls-2{font-size:54.06px;font-family:BelloScriptPro-Regular, Bello Script Pro;}.cls-3{font-size:17.12px;font-family:Urbane-Light, Urbane;font-weight:300;}.cls-4{letter-spacing:-0.02em;}.cls-5{letter-spacing:-0.02em;}</style></defs><title>logo</title><path class="cls-1" d="M56.74,101.75c-4.45-.7-13.86-7.2-21.32-3.12s-17.27,4.77-17.27,4.77C-7.43,99.45,4,81.21,7.86,76.19S7.71,66.72,6.58,65.6-6.93,49.69,5.65,40.14c9.9-7.51,9.66-10.63,9.11-11.62a19.74,19.74,0,0,1-1-2c-4-9.91.85-14.69.85-14.69C13.51,9.55,12.66,7.11,13,5.72a6.27,6.27,0,0,1,3.4-4.41c6.72-3.11,13,4.32,13,4.32,4-.53,18.46,0,18.46,0S52.39-1.77,59.3.8c3.62,1.35,5.56,5,4.08,8.21a5.6,5.6,0,0,1-.7,1.11c-1.8,2.12,6.52,5.55.73,16.67a3.78,3.78,0,0,0,.87,4.12,63.44,63.44,0,0,0,6.91,6.91c4.79,4.07,16.93,10.92,6.9,25.27a13.5,13.5,0,0,1-3.72,3.4,4.38,4.38,0,0,0-1.25,1.33,6.09,6.09,0,0,0,1.58,8.1c2.14,1.72,4.67,4.26,5.13,7.13.23,1.45.13.92.13.92s-5.64-5.33-8.4-.27c-2.49,4.57-.46,1.78-4.55,1.23-7.49-1-7.78,4.27-5.7,8.58,0,0-3.92-.85-4.86,1.64-1.56,4.11,3.27,4.68,3.49,5.83S56.74,101.75,56.74,101.75Z"/><text class="cls-2" transform="translate(93.81 55.99)">sweeter</text><text class="cls-3" transform="translate(96.07 76.86)"><tspan class="cls-4">c</tspan><tspan x="10.55" y="0">andy </tspan><tspan class="cls-5" x="60.26" y="0">c</tspan><tspan x="70.82" y="0">o.</tspan></text></svg>